<svg width="24" height="25" viewBox="0 0 24 25" fill="none" xmlns="http://www.w3.org/2000/svg">
<g id="fi-rs-trash" clip-path="url(#clip0_738_646)">
<g id="01 align center">
<path id="Vector" d="M21.9446 4.5H16.8057V2.5C16.8057 1.96957 16.5892 1.46086 16.2037 1.08579C15.8182 0.710714 15.2954 0.5 14.7502 0.5H8.58352C8.03835 0.5 7.51551 0.710714 7.13002 1.08579C6.74453 1.46086 6.52797 1.96957 6.52797 2.5V4.5H1.38908V6.5H3.44463V21.5C3.44463 22.2956 3.76948 23.0587 4.34772 23.6213C4.92596 24.1839 5.71021 24.5 6.52797 24.5H16.8057C17.6235 24.5 18.4078 24.1839 18.986 23.6213C19.5642 23.0587 19.8891 22.2956 19.8891 21.5V6.5H21.9446V4.5ZM8.58352 2.5H14.7502V4.5H8.58352V2.5ZM17.8335 21.5C17.8335 21.7652 17.7252 22.0196 17.5325 22.2071C17.3397 22.3946 17.0783 22.5 16.8057 22.5H6.52797C6.25538 22.5 5.99396 22.3946 5.80122 22.2071C5.60847 22.0196 5.50019 21.7652 5.50019 21.5V6.5H17.8335V21.5Z" fill="white"/>
<path id="Vector_2" d="M10.6389 10.498H8.58333V18.498H10.6389V10.498Z" fill="white"/>
<path id="Vector_3" d="M14.7503 10.498H12.6948V18.498H14.7503V10.498Z" fill="white"/>
</g>
</g>
<defs>
<clipPath id="clip0_738_646">
<rect width="23.3333" height="24" fill="white" transform="translate(0 0.5)"/>
</clipPath>
</defs>
</svg>
